<svg xmlns="http://www.w3.org/2000/svg" width="52.051" height="61.895" viewBox="0 0 52.051 61.895">
  <g id="Polygon_1" data-name="Polygon 1" transform="translate(52.051) rotate(90)" fill="none">
    <path d="M26.65,7.229a5,5,0,0,1,8.6,0L57.4,44.5a5,5,0,0,1-4.3,7.555H8.79a5,5,0,0,1-4.3-7.555Z" stroke="none"/>
    <path d="M 30.94753265380859 6.28375244140625 C 29.70086288452148 6.28375244140625 28.57622146606445 6.923500061035156 27.93911361694336 7.995079040527344 L 5.781352996826172 45.26277923583984 C 5.129913330078125 46.35844039916992 5.117282867431641 47.67404174804688 5.747543334960938 48.78201293945312 C 6.377803802490234 49.88998031616211 7.515090942382812 50.55146026611328 8.789783477783203 50.55146026611328 L 53.10528182983398 50.55146026611328 C 54.37997436523438 50.55146026611328 55.51726150512695 49.88998031616211 56.14752197265625 48.78201293945312 C 56.77778244018555 47.67403030395508 56.76514434814453 46.35844039916992 56.11370086669922 45.26277923583984 L 33.95596313476562 7.995079040527344 C 33.31884002685547 6.923500061035156 32.19419097900391 6.28375244140625 30.94753265380859 6.28375244140625 M 30.94753265380859 4.783756256103516 C 32.61189270019531 4.783756256103516 34.27626037597656 5.598670959472656 35.24528503417969 7.228500366210938 L 57.40303421020508 44.49620056152344 C 59.38465118408203 47.82912063598633 56.98280334472656 52.05146026611328 53.10528182983398 52.05146026611328 L 8.789783477783203 52.05146026611328 C 4.912254333496094 52.05146026611328 2.510414123535156 47.82912063598633 4.492023468017578 44.49620056152344 L 26.64978408813477 7.228500366210938 C 27.61880874633789 5.598670959472656 29.28316879272461 4.783756256103516 30.94753265380859 4.783756256103516 Z" stroke="none" fill="#f5a54f"/>
  </g>
</svg>
