<svg xmlns="http://www.w3.org/2000/svg" xmlns:xlink="http://www.w3.org/1999/xlink" width="61.699" height="82.041" viewBox="0 0 61.699 82.041">
  <defs>
    <clipPath id="clip-path">
      <rect id="Rectangle_1" data-name="Rectangle 1" width="82.041" height="61.699"/>
    </clipPath>
  </defs>
  <g id="Group_2" data-name="Group 2" transform="translate(61.699) rotate(90)">
    <g id="Group_1" data-name="Group 1" clip-path="url(#clip-path)">
      <path id="Path_1" data-name="Path 1" d="M284.358,7.824l0,.878-1.53.808v.562h1.529l0,.808h-3.615V9.124c0-.835.149-1.406,1.106-1.406.668,0,.94.343.983.984ZM282.29,9.107c0-.4-.091-.633-.546-.633-.37,0-.368.466-.37.817v.781h.914Z" transform="translate(-204.646 -5.626)"/>
      <path id="Path_2" data-name="Path 2" d="M280.984,3.865A3.866,3.866,0,1,1,277.119,0a3.869,3.869,0,0,1,3.865,3.866m-6.953,0A3.087,3.087,0,1,0,277.119.78a3.092,3.092,0,0,0-3.088,3.085" transform="translate(-199.187 0.001)"/>
      <path id="Path_3" data-name="Path 3" d="M269.212,85.538a6.513,6.513,0,0,1-3.043-5.052V61.515a6.4,6.4,0,0,1,3.042-5.048,4.783,4.783,0,0,1,.808-.484h-9.4a2.744,2.744,0,0,0-2.744,2.744v24.55a2.744,2.744,0,0,0,2.744,2.744h9.4a4.764,4.764,0,0,1-.808-.484" transform="translate(-187.979 -40.809)"/>
      <path id="Path_4" data-name="Path 4" d="M184.024,68.539H173.305V58.727a2.744,2.744,0,0,0-2.744-2.744h-9.548a4.753,4.753,0,0,1,.808.484,6.367,6.367,0,0,1,3.043,5.052V80.49a6.476,6.476,0,0,1-3.042,5.048,4.812,4.812,0,0,1-.808.485h9.547a2.744,2.744,0,0,0,2.744-2.744V73.7h10.719Z" transform="translate(-117.37 -40.809)"/>
      <path id="Path_5" data-name="Path 5" d="M16.234,55.734,16.243,6.09a6.962,6.962,0,0,1,3.3-5.484A5.161,5.161,0,0,1,20.423.08H0A5.215,5.215,0,0,1,.879.607a6.983,6.983,0,0,1,3.31,5.5L4.18,55.746a6.984,6.984,0,0,1-3.3,5.485A5.2,5.2,0,0,1,0,61.757H20.423a5.224,5.224,0,0,1-.879-.527,7.006,7.006,0,0,1-3.31-5.5" transform="translate(0 -0.058)"/>
      <path id="Path_6" data-name="Path 6" d="M104.54,157.556H99.15a4.49,4.49,0,0,0-4.49,4.49c0,.063.007.124.009.185-.017.171-.026.345-.026.52v13.8h5.385a4.49,4.49,0,0,0,4.49-4.49c0-.051.022-.518.022-.7v-8.261a6.438,6.438,0,0,1,3.043-5.052,4.76,4.76,0,0,1,.807-.484Z" transform="translate(-68.99 -114.85)"/>
    </g>
  </g>
</svg>
